{"title":"Power Rangers Super Megaforce S21E10 The Perfect Storm WEB-DL","uid":10942695,"size":262099803,"categoryP":"video","categoryS":"tv_shows","magnet":"?xt=urn:btih:22e3d2a01d9194bf2c11f3d33d8bf106c54f9e4f&amp;dn=Power+Rangers+Super+Megaforce+S21E10+The+Perfect+Storm+WEB-DL&amp;tr=udp%3A%2F%2Ftracker.openbittorrent.com%3A80&amp;tr=udp%3A%2F%2Fopen.demonii.com%3A1337&amp;tr=udp%3A%2F%2Ftracker.coppersurfer.tk%3A6969&amp;tr=udp%3A%2F%2Fexodus.desync.com%3A6969","seeders":2,"leechers":0,"uploader":"jmanwf","files":-1,"time":1409570162,"description":"The Rangers are sidetracked from their fight against an invading monster when Tensou is struck by lightning, develops amnesia and wanders away from the Command Center.\n\n\n\nFormat : MPEG-4\nFormat profile : Base Media\nCodec ID : isom\nFile size : 250 MiB\nDuration : 23mn 35s\nOverall bit rate : 1 481 Kbps\nWriting application : Lavf54.59.106\n\nVideo\nID : 1\nFormat : AVC\nFormat/Info : Advanced Video Codec\nFormat profile : &lt;a class=&quot;__cf_email__&quot; href=&quot;/cdn-cgi/l/email-protection&quot; data-cfemail=&quot;3179585659717d021f00&quot;&gt;[email&amp;#160;protected]&lt;/a&gt;&lt;script cf-hash='f9e31' type=&quot;text/javascript&quot;&gt;\n/* &lt;![CDATA[ */!function(){try{var t=&quot;currentScript&quot;in document?document.currentScript:function(){for(var t=document.getElementsByTagName(&quot;script&quot;),e=t.length;e--;)if(t[e].getAttribute(&quot;cf-hash&quot;))return t[e]}();if(t&amp;&amp;t.previousSibling){var e,r,n,i,c=t.previousSibling,a=c.getAttribute(&quot;data-cfemail&quot;);if(a){for(e=&quot;&quot;,r=parseInt(a.substr(0,2),16),n=2;a.length-n;n+=2)i=parseInt(a.substr(n,2),16)^r,e+=String.fromCharCode(i);e=document.createTextNode(e),c.parentNode.replaceChild(e,c)}}}catch(u){}}();/* ]]&gt; */&lt;/script&gt;\nFormat settings, CABAC : Yes\nFormat settings, ReFrames : 5 frames\nCodec ID : avc1\nCodec ID/Info : Advanced Video Coding\nDuration : 23mn 35s\nBit rate : 1 412 Kbps\nWidth : 1 280 pixels\nHeight : 720 pixels\nDisplay aspect ratio : 16:9\nFrame rate mode : Variable\nFrame rate : 23.976 fps\nMinimum frame rate : 2.639 fps\nMaximum frame rate : 58.824 fps\nColor space : YUV\nChroma subsampling : 4:2:0\nBit depth : 8 bits\nScan type : Progressive\nBits/(Pixel*Frame) : 0.064\nStream size : 238 MiB (95%)\n\nAudio\nID : 2\nFormat : AAC\nFormat/Info : Advanced Audio Codec\nFormat profile : HE-AAC / LC\nCodec ID : 40\nDuration : 23mn 35s\nBit rate mode : Constant\nBit rate : 64.0 Kbps\nChannel(s) : 2 channels\nChannel positions : Front: L R\nSampling rate : 48.0 KHz / 24.0 KHz\nCompression mode : Lossy\nStream size : 10.8 MiB (4%)\n","torrent":{"xt":"urn:btih:22e3d2a01d9194bf2c11f3d33d8bf106c54f9e4f","amp;dn":"Power+Rangers+Super+Megaforce+S21E10+The+Perfect+Storm+WEB-DL","amp;tr":["udp%3A%2F%2Ftracker.openbittorrent.com%3A80","udp%3A%2F%2Fopen.demonii.com%3A1337","udp%3A%2F%2Ftracker.coppersurfer.tk%3A6969","udp%3A%2F%2Fexodus.desync.com%3A6969"],"infoHash":"22e3d2a01d9194bf2c11f3d33d8bf106c54f9e4f","infoHashBuffer":{"type":"Buffer","data":[34,227,210,160,29,145,148,191,44,17,243,211,61,139,241,6,197,79,158,79]},"announce":[],"urlList":[]}}